REM DIRINDEX 1\2,1\3,1\4
REM DIRNAME folder01,folder02,folder03,folder04
TITLE ""
FILE "DISC1Track05.mp3" MP3
  TRACK 01 AUDIO
    TITLE "0:"
    INDEX 01 00:00:00
  TRACK 02 AUDIO
    TITLE "4:cjc105_0303"
    INDEX 01 00:00:13
  TRACK 03 AUDIO
    TITLE "0:"
    INDEX 01 00:07:29
  TRACK 04 AUDIO
    TITLE "2:cjc105_0304"
    INDEX 01 00:08:03
  TRACK 05 AUDIO
    TITLE "2:cjc105_0305"
    INDEX 01 00:11:17
  TRACK 06 AUDIO
    TITLE "2:cjc105_0306"
    INDEX 01 00:13:71
  TRACK 07 AUDIO
    TITLE "2:cjc105_0307"
    INDEX 01 00:16:67
  TRACK 08 AUDIO
    TITLE "2:cjc105_0308"
    INDEX 01 00:19:63
  TRACK 09 AUDIO
    TITLE "2:cjc105_0309"
    INDEX 01 00:22:68
  TRACK 10 AUDIO
    TITLE "2:cjc105_0310"
    INDEX 01 00:26:24
  TRACK 11 AUDIO
    TITLE "2:cjc105_0311"
    INDEX 01 00:29:44
  TRACK 12 AUDIO
    TITLE "2:cjc105_0312"
    INDEX 01 00:32:72
  TRACK 13 AUDIO
    TITLE "2:cjc105_0313"
    INDEX 01 00:36:19
  TRACK 14 AUDIO
    TITLE "2:cjc105_0314"
    INDEX 01 00:39:29
  TRACK 15 AUDIO
    TITLE "2:cjc105_0315"
    INDEX 01 00:42:39
  TRACK 16 AUDIO
    TITLE "2:cjc105_0316"
    INDEX 01 00:45:39
  TRACK 17 AUDIO
    TITLE "2:cjc105_0317"
    INDEX 01 00:48:65
  TRACK 18 AUDIO
    TITLE "2:cjc105_0318"
    INDEX 01 00:51:69
  TRACK 19 AUDIO
    TITLE "2:cjc105_0319"
    INDEX 01 00:54:64
  TRACK 20 AUDIO
    TITLE "2:cjc105_0320"
    INDEX 01 00:58:01
  TRACK 21 AUDIO
    TITLE "2:cjc105_0321"
    INDEX 01 01:01:13
  TRACK 22 AUDIO
    TITLE "2:cjc105_0322"
    INDEX 01 01:04:17
  TRACK 23 AUDIO
    TITLE "2:cjc105_0323"
    INDEX 01 01:07:31
  TRACK 24 AUDIO
    TITLE "2:cjc105_0324"
    INDEX 01 01:10:47
  TRACK 25 AUDIO
    TITLE "2:cjc105_0325"
    INDEX 01 01:14:04
  TRACK 26 AUDIO
    TITLE "2:cjc105_0326"
    INDEX 01 01:17:18
  TRACK 27 AUDIO
    TITLE "2:cjc105_0327"
    INDEX 01 01:20:18
  TRACK 28 AUDIO
    TITLE "2:cjc105_0328"
    INDEX 01 01:23:44
  TRACK 29 AUDIO
    TITLE "2:cjc105_0329"
    INDEX 01 01:26:60
  TRACK 30 AUDIO
    TITLE "2:cjc105_0330"
    INDEX 01 01:30:30
  TRACK 31 AUDIO
    TITLE "2:cjc105_0331"
    INDEX 01 01:33:50
  TRACK 32 AUDIO
    TITLE "2:cjc105_0332"
    INDEX 01 01:37:19
  TRACK 33 AUDIO
    TITLE "2:cjc105_0333"
    INDEX 01 01:40:44
  TRACK 34 AUDIO
    TITLE "2:cjc105_0334"
    INDEX 01 01:43:54
  TRACK 35 AUDIO
    TITLE "2:cjc105_0335"
    INDEX 01 01:46:49
  TRACK 36 AUDIO
    TITLE "2:cjc105_0336"
    INDEX 01 01:50:17
  TRACK 37 AUDIO
    TITLE "2:cjc105_0337"
    INDEX 01 01:53:45
  TRACK 38 AUDIO
    TITLE "2:cjc105_0338"
    INDEX 01 01:57:06
  TRACK 39 AUDIO
    TITLE "2:cjc105_0339"
    INDEX 01 02:00:14
  TRACK 40 AUDIO
    TITLE "2:cjc105_0340"
    INDEX 01 02:03:36
  TRACK 41 AUDIO
    TITLE "2:cjc105_0341"
    INDEX 01 02:06:30
  TRACK 42 AUDIO
    TITLE "2:cjc105_0342"
    INDEX 01 02:09:52
  TRACK 43 AUDIO
    TITLE "2:cjc105_0343"
    INDEX 01 02:13:16
  TRACK 44 AUDIO
    TITLE "2:cjc105_0344"
    INDEX 01 02:16:54
  TRACK 45 AUDIO
    TITLE "2:cjc105_0345"
    INDEX 01 02:20:24
  TRACK 46 AUDIO
    TITLE "2:cjc105_0346"
    INDEX 01 02:23:50
  TRACK 47 AUDIO
    TITLE "2:cjc105_0347"
    INDEX 01 02:26:50
  TRACK 48 AUDIO
    TITLE "2:cjc105_0348"
    INDEX 01 02:29:21
  TRACK 49 AUDIO
    TITLE "2:cjc105_0349"
    INDEX 01 02:32:37
  TRACK 50 AUDIO
    TITLE "2:cjc105_0350"
    INDEX 01 02:35:67
  TRACK 51 AUDIO
    TITLE "2:cjc105_0351"
    INDEX 01 02:38:69
  TRACK 52 AUDIO
    TITLE "2:cjc105_0352"
    INDEX 01 02:42:22
  TRACK 53 AUDIO
    TITLE "2:cjc105_0353"
    INDEX 01 02:45:26
  TRACK 54 AUDIO
    TITLE "2:cjc105_0354"
    INDEX 01 02:48:09
  TRACK 55 AUDIO
    TITLE "2:cjc105_0355"
    INDEX 01 02:51:05
  TRACK 56 AUDIO
    TITLE "2:cjc105_0356"
    INDEX 01 02:54:00
  TRACK 57 AUDIO
    TITLE "2:cjc105_0357"
    INDEX 01 02:57:41
  TRACK 58 AUDIO
    TITLE "2:cjc105_0358"
    INDEX 01 03:01:00
  TRACK 59 AUDIO
    TITLE "2:cjc105_0359"
    INDEX 01 03:04:25
  TRACK 60 AUDIO
    TITLE "2:cjc105_0360"
    INDEX 01 03:08:00
  TRACK 61 AUDIO
    TITLE "2:cjc105_0361"
    INDEX 01 03:11:12
  TRACK 62 AUDIO
    TITLE "2:cjc105_0362"
    INDEX 01 03:14:18
  TRACK 63 AUDIO
    TITLE "2:cjc105_0363"
    INDEX 01 03:17:44
  TRACK 64 AUDIO
    TITLE "2:cjc105_0364"
    INDEX 01 03:20:52
  TRACK 65 AUDIO
    TITLE "2:cjc105_0365"
    INDEX 01 03:23:54
  TRACK 66 AUDIO
    TITLE "2:cjc105_0366"
    INDEX 01 03:26:53
  TRACK 67 AUDIO
    TITLE "2:cjc105_0367"
    INDEX 01 03:29:61
  TRACK 68 AUDIO
    TITLE "2:cjc105_0368"
    INDEX 01 03:32:71
  TRACK 69 AUDIO
    TITLE "2:cjc105_0369"
    INDEX 01 03:36:06
  TRACK 70 AUDIO
    TITLE "2:cjc105_0370"
    INDEX 01 03:39:12
  TRACK 71 AUDIO
    TITLE "2:cjc105_0371"
    INDEX 01 03:42:46
  TRACK 72 AUDIO
    TITLE "2:cjc105_0372"
    INDEX 01 03:45:40
  TRACK 73 AUDIO
    TITLE "2:cjc105_0373"
    INDEX 01 03:48:42
  TRACK 74 AUDIO
    TITLE "2:cjc105_0374"
    INDEX 01 03:51:72
  TRACK 75 AUDIO
    TITLE "2:cjc105_0375"
    INDEX 01 03:55:07
  TRACK 76 AUDIO
    TITLE "0:"
    INDEX 01 03:57:73
